<svg xmlns="http://www.w3.org/2000/svg" version="1.1" xmlns:xlink="http://www.w3.org/1999/xlink" xmlns:svgjs="http://svgjs.dev/svgjs" preserveAspectRatio="none" viewBox="0 0 1440 650">
    <g mask="url(&quot;#SvgjsMask1617&quot;)" fill="none">
        <rect width="1440" height="650" x="0" y="0" fill="url(&quot;#SvgjsLinearGradient1618&quot;)"></rect>
        <path d="M1121.532,602.481C1180.866,602.108,1230.249,558.814,1256.392,505.549C1279.65,458.161,1270.074,402.793,1241.246,358.571C1215.129,318.508,1169.348,299.573,1121.532,298.674C1071.808,297.739,1021.176,312.425,993.759,353.918C963.492,399.724,958.604,458.434,983.704,507.262C1011.066,560.49,1061.684,602.857,1121.532,602.481" fill="rgba(119, 142, 28, 0.4)" class="triangle-float2"></path>
        <path d="M257.557,437.974C280.143,436.543,299.578,424.504,311.996,405.584C326.025,384.21,337.1,357.738,325.003,335.214C312.456,311.852,284.051,303.087,257.557,304.224C233.086,305.274,212.381,319.804,199.445,340.603C185.6,362.865,176.264,390.82,189.699,413.332C202.917,435.48,231.817,439.605,257.557,437.974" fill="rgba(119, 142, 28, 0.4)" class="triangle-float1"></path>
        <path d="M348.317,479.702C385.103,477.897,415.84,454.637,434.233,422.729C452.602,390.863,456.031,353.256,440.4,319.962C421.857,280.465,391.947,240.202,348.317,239.733C304.198,239.258,273.4,278.958,252.738,317.943C233.636,353.984,225.694,396.824,246.444,431.942C266.893,466.549,308.168,481.672,348.317,479.702" fill="rgba(119, 142, 28, 0.4)" class="triangle-float2"></path>
        <path d="M990.497,205.378C1034.729,207.501,1082.005,199.739,1107.058,163.224C1135.215,122.184,1142.652,65.412,1114.846,24.134C1089.117,-14.059,1036.443,-12.914,990.497,-9.809C951.351,-7.164,912.552,5.631,892.207,39.179C871.141,73.916,871.149,117.925,891.829,152.893C912.154,187.261,950.615,203.464,990.497,205.378" fill="rgba(119, 142, 28, 0.4)" class="triangle-float2"></path>
        <path d="M187.943,258.459C205.275,258.604,222.911,251.389,230.968,236.042C238.606,221.492,231.648,204.943,223.542,190.649C215.283,176.086,204.651,161.24,187.943,160.174C169.696,159.009,152.382,169.56,143.496,185.54C134.839,201.109,136.879,220.12,146.151,235.331C155.033,249.902,170.879,258.316,187.943,258.459" fill="rgba(119, 142, 28, 0.4)" class="triangle-float3"></path>
        <path d="M1153.344,701.16C1210.793,701.833,1250.145,648.795,1276.487,597.737C1300.275,551.629,1305.636,498.573,1281.581,452.603C1255.612,402.975,1209.289,365.137,1153.344,362.408C1092.648,359.448,1028.988,384.774,1001.441,438.939C975.599,489.751,1006.524,545.583,1035.099,594.91C1063.568,644.054,1096.554,700.495,1153.344,701.16" fill="rgba(119, 142, 28, 0.4)" class="triangle-float2"></path>
    </g>
    <defs>
        <mask id="SvgjsMask1617">
            <rect width="1440" height="650" fill="#ffffff"></rect>
        </mask>
        <linearGradient x1="15.28%" y1="-39.29%" x2="84.72%" y2="139.29%" gradientUnits="userSpaceOnUse" id="SvgjsLinearGradient1618">
            <stop stop-color="rgba(0, 0, 0, 10)" offset="0"></stop>
            <stop stop-color="rgba(158, 154, 0, 0)" offset="1"></stop>
        </linearGradient>
        <style>
            {`@keyframes float1 {
                0%{transform: translate(0, 0)}
                50%{transform: translate(-10px, 0)}
                100%{transform: translate(0, 0)}
                }

                .triangle-float1 {
                animation: float1 5s infinite;
                }

                @keyframes float2 {
                0%{transform: translate(0, 0)}
                50%{transform: translate(-5px, -5px)}
                100%{transform: translate(0, 0)}
                }

                .triangle-float2 {
                animation: float2 4s infinite;
                }

                @keyframes float3 {
                0%{transform: translate(0, 0)}
                50%{transform: translate(0, -10px)}
                100%{transform: translate(0, 0)}
                }

                .triangle-float3 {
                animation: float3 6s infinite;
                }
            `}
        </style>
    </defs>
</svg>


