<svg xmlns="http://www.w3.org/2000/svg" version="1.1" xmlns:xlink="http://www.w3.org/1999/xlink" xmlns:svgjs="http://svgjs.dev/svgjs" width="350" height="300" preserveAspectRatio="none" viewBox="0 0 350 300">
    <g mask="url(&quot;#SvgjsMask1458&quot;)" fill="none">
        <path d="M355.83333333333337 300L0 300 L0 161.79Q25.38 158, 29.166666666666664 183.38Q38.18 163.22, 58.33333333333333 172.23Q66.62 151.35, 87.5 159.63Q115.92 158.89, 116.66666666666666 187.31Q119.31 172.45, 134.16666666666666 175.09Q137.69 149.45, 163.33333333333331 152.97Q189.56 150.03, 192.49999999999997 176.25Q207.53 173.78, 209.99999999999997 188.82Q201.72 163.04, 227.49999999999997 154.76Q245.24 155, 244.99999999999997 172.75Q260.94 171.19, 262.5 187.14Q263.45 158.92, 291.6666666666667 159.87Q300.5 151.2, 309.1666666666667 160.03Q325.24 158.6, 326.6666666666667 174.67Q346.66 165.5, 355.83333333333337 185.5z" fill="rgba(216, 236, 169, 1)"></path>
        <path d="M373.33333333333337 300L0 300 L0 196.08Q13.4 191.98, 17.5 205.37Q37.28 195.99, 46.666666666666664 215.77Q48.74 188.68, 75.83333333333333 190.76Q79.26 176.69, 93.33333333333333 180.12Q110.89 180.18, 110.83333333333333 197.73Q128.77 198.16, 128.33333333333331 216.1Q121.38 191.64, 145.83333333333331 184.69Q174.06 183.75, 174.99999999999997 211.98Q177.89 197.38, 192.49999999999997 200.27Q200.02 178.63, 221.66666666666663 186.15Q241.26 188.24, 239.16666666666663 207.83Q253.61 204.78, 256.66666666666663 219.22Q260.13 193.52, 285.8333333333333 196.98Q295.31 177.29, 315 186.76Q332.23 174.82, 344.1666666666667 192.05Q370.59 189.31, 373.33333333333337 215.73z" fill="rgba(169, 236, 191, 1)"></path>
        <path d="M361.6666666666667 300L0 300 L0 240.63Q5.63 228.76, 17.5 234.4Q20.63 220.03, 35 223.15Q37.94 208.59, 52.5 211.52Q86.12 215.98, 81.66666666666666 249.6Q77.93 228.36, 99.16666666666666 224.62Q100.96 208.91, 116.66666666666666 210.7Q130.73 207.26, 134.16666666666666 221.33Q158.68 216.68, 163.33333333333331 241.2Q183.17 231.87, 192.49999999999997 251.71Q196.53 226.57, 221.66666666666663 230.6Q220.74 212.18, 239.16666666666663 211.25Q260.07 202.99, 268.3333333333333 223.9Q291.01 229.07, 285.8333333333333 251.75Q274.17 222.58, 303.3333333333333 210.92Q326.84 205.26, 332.5 228.76Q354.96 222.05, 361.6666666666667 244.51z" fill="rgba(77, 135, 96, 1)"></path>
        <path d="M373.3333333333333 300L0 300 L0 258.42Q12.18 241.43, 29.166666666666664 253.61Q31.21 238.16, 46.666666666666664 240.2Q62.99 239.02, 64.16666666666666 255.34Q88.97 250.98, 93.33333333333331 275.78Q103.28 268.23, 110.83333333333331 278.18Q112.93 262.77, 128.33333333333331 264.87Q137.13 244.5, 157.49999999999997 253.3Q165.7 232.33, 186.66666666666663 240.53Q196.61 232.97, 204.16666666666663 242.92Q228.07 237.66, 233.3333333333333 261.56Q254.78 253.84, 262.49999999999994 275.29Q270.27 265.56, 279.99999999999994 273.33Q275.76 251.6, 297.49999999999994 247.36Q319.76 240.45, 326.66666666666663 262.71Q341.03 259.57, 344.16666666666663 273.94Q347.45 248.06, 373.3333333333333 251.35z" fill="rgba(182, 223, 195, 1)"></path>
        <path d="M355.83333333333337 300L0 300 L0 270.72Q26.99 268.55, 29.166666666666664 295.54Q43.68 292.55, 46.666666666666664 307.06Q46.99 278.22, 75.83333333333333 278.54Q84 269.21, 93.33333333333333 277.38Q115.17 270.05, 122.5 291.89Q146.1 286.32, 151.66666666666666 309.92Q151.88 280.97, 180.83333333333331 281.18Q190.41 261.59, 209.99999999999997 271.16Q227.57 259.57, 239.16666666666663 277.14Q268.06 276.87, 268.3333333333333 305.76Q274.15 282.41, 297.5 288.23Q305.88 267.44, 326.6666666666667 275.82Q339.38 259.37, 355.83333333333337 272.08z" fill="rgba(85, 90, 66, 1)"></path>
    </g>
    <defs>
        <mask id="SvgjsMask1458">
            <rect width="350" height="300" fill="#ffffff"></rect>
        </mask>
    </defs>
</svg>